<svg width="33" height="30" viewBox="0 0 33 30" fill="none" xmlns="http://www.w3.org/2000/svg">
<path d="M6.50625 22.65C7.8875 21.675 9.43125 20.9062 11.1375 20.3438C12.8438 19.7812 14.6313 19.5 16.5 19.5C18.3687 19.5 20.1563 19.7812 21.8625 20.3438C23.5688 20.9062 25.1125 21.675 26.4937 22.65C27.4417 21.625 28.1797 20.4625 28.7078 19.1625C29.2359 17.8625 29.5 16.475 29.5 15C29.5 11.675 28.2339 8.84375 25.7016 6.50625C23.1693 4.16875 20.1021 3 16.5 3C12.8979 3 9.83073 4.16875 7.29844 6.50625C4.76615 8.84375 3.5 11.675 3.5 15C3.5 16.475 3.76406 17.8625 4.29219 19.1625C4.82031 20.4625 5.55833 21.625 6.50625 22.65ZM16.5 16.5C14.9021 16.5 13.5547 15.9938 12.4578 14.9813C11.3609 13.9688 10.8125 12.725 10.8125 11.25C10.8125 9.775 11.3609 8.53125 12.4578 7.51875C13.5547 6.50625 14.9021 6 16.5 6C18.0979 6 19.4453 6.50625 20.5422 7.51875C21.6391 8.53125 22.1875 9.775 22.1875 11.25C22.1875 12.725 21.6391 13.9688 20.5422 14.9813C19.4453 15.9938 18.0979 16.5 16.5 16.5ZM16.5 30C14.2521 30 12.1396 29.6062 10.1625 28.8187C8.18542 28.0312 6.46562 26.9625 5.00312 25.6125C3.54062 24.2625 2.38281 22.675 1.52969 20.85C0.676562 19.025 0.25 17.075 0.25 15C0.25 12.925 0.676562 10.975 1.52969 9.15C2.38281 7.325 3.54062 5.7375 5.00312 4.3875C6.46562 3.0375 8.18542 1.96875 10.1625 1.18125C12.1396 0.39375 14.2521 0 16.5 0C18.7479 0 20.8604 0.39375 22.8375 1.18125C24.8146 1.96875 26.5344 3.0375 27.9969 4.3875C29.4594 5.7375 30.6172 7.325 31.4703 9.15C32.3234 10.975 32.75 12.925 32.75 15C32.75 17.075 32.3234 19.025 31.4703 20.85C30.6172 22.675 29.4594 24.2625 27.9969 25.6125C26.5344 26.9625 24.8146 28.0312 22.8375 28.8187C20.8604 29.6062 18.7479 30 16.5 30Z" fill="#E6E0E9"/>
</svg>
